<?xml version="1.0" standalone="no"?>
<!DOCTYPE svg PUBLIC "-//W3C//DTD SVG 20010904//EN"
 "http://www.w3.org/TR/2001/REC-SVG-20010904/DTD/svg10.dtd">
<svg version="1.0" xmlns="http://www.w3.org/2000/svg"
 width="1024.000000pt" height="1024.000000pt" viewBox="0 0 1024.000000 1024.000000"
 preserveAspectRatio="xMidYMid meet">
<metadata>
Created by potrace 1.11, written by Peter Selinger 2001-2013
</metadata>
<g transform="translate(0.000000,1024.000000) scale(0.100000,-0.100000)"
fill="#000000" stroke="none">
<path d="M7575 9459 c-111 -11 -149 -20 -244 -58 -128 -52 -179 -97 -708 -624
-282 -281 -513 -514 -513 -518 0 -6 2075 -2085 2143 -2148 l26 -24 498 499
c557 557 597 604 650 747 49 135 64 331 36 467 -21 103 -80 234 -138 311 -52
67 -1056 1076 -1160 1165 -118 101 -277 168 -430 180 -38 3 -74 7 -80 8 -5 1
-41 -1 -80 -5z"/>
<path d="M3369 5523 l-2357 -2358 -6 -65 c-4 -36 -9 -81 -11 -100 -3 -19 -14
-116 -25 -215 -11 -99 -22 -198 -25 -220 -2 -22 -7 -62 -10 -90 -3 -27 -7 -68
-10 -90 -3 -22 -7 -60 -10 -85 -3 -25 -7 -65 -10 -90 -3 -25 -8 -65 -10 -89
-3 -25 -9 -79 -15 -120 -5 -42 -12 -103 -15 -135 -3 -33 -7 -71 -10 -85 -2
-14 -6 -55 -9 -91 -4 -36 -8 -74 -10 -85 -2 -11 -7 -51 -11 -90 -7 -71 -12
-111 -21 -175 -31 -211 8 -358 122 -455 116 -100 226 -126 414 -100 37 5 67 8
225 25 55 6 111 13 125 15 14 2 54 6 90 10 36 4 76 8 90 10 14 2 52 7 85 10
33 3 71 8 85 10 14 2 52 6 85 10 33 3 96 10 140 15 44 5 103 12 130 15 28 3
66 7 85 10 19 2 64 7 100 10 36 4 72 8 80 10 8 3 44 7 80 10 36 3 76 8 90 10
14 2 54 7 90 10 36 3 76 8 90 10 14 2 52 6 85 10 33 3 67 7 76 8 9 2 1077
1064 2374 2361 l2358 2358 -1084 1084 c-596 596 -1086 1084 -1089 1084 -3 0
-1065 -1061 -2361 -2357z"/>
</g>
</svg>
