<?xml version="1.0" standalone="no"?>
<!DOCTYPE svg PUBLIC "-//W3C//DTD SVG 20010904//EN"
 "http://www.w3.org/TR/2001/REC-SVG-20010904/DTD/svg10.dtd">
<svg version="1.0" xmlns="http://www.w3.org/2000/svg"
 width="1024.000000pt" height="1024.000000pt" viewBox="0 0 1024.000000 1024.000000"
 preserveAspectRatio="xMidYMid meet">
<metadata>
Created by potrace 1.11, written by Peter Selinger 2001-2013
</metadata>
<g transform="translate(0.000000,1024.000000) scale(0.100000,-0.100000)"
fill="#000000" stroke="none">
<path d="M7397 9164 c-1 -1 -26 -5 -56 -9 -30 -4 -65 -11 -78 -16 -13 -5 -23
-7 -23 -4 0 6 -113 -42 -156 -66 -75 -43 -132 -97 -596 -559 l-468 -466 1012
-1012 1013 -1012 465 465 c256 256 484 491 508 523 95 128 143 274 144 442 1
168 -40 304 -130 436 -37 55 -995 1023 -1107 1120 -68 58 -202 120 -300 140
-67 13 -220 26 -228 18z"/>
<path d="M5015 7473 c-335 -96 -617 -176 -625 -178 -8 -2 -175 -49 -370 -105
-312 -89 -717 -204 -865 -245 -98 -28 -235 -124 -356 -249 -133 -139 -215
-268 -270 -426 -20 -58 -39 -112 -42 -120 -3 -8 -297 -892 -653 -1965 -355
-1072 -672 -2026 -703 -2118 l-56 -169 120 -119 119 -118 1183 1182 c760 759
1182 1187 1179 1197 -3 8 -16 44 -29 80 -70 184 -49 439 50 609 34 59 112 158
153 195 85 75 223 152 305 170 17 3 41 9 55 12 14 3 72 7 130 9 158 5 272 -22
402 -97 179 -103 325 -303 363 -498 11 -57 13 -244 4 -291 -16 -78 -19 -89
-39 -142 -61 -163 -199 -315 -361 -400 -52 -27 -132 -58 -159 -63 -3 0 -27 -4
-55 -9 -134 -22 -266 -9 -395 39 -25 10 -52 19 -60 22 -10 3 -437 -418 -1197
-1179 l-1183 -1183 116 -117 c64 -64 121 -117 127 -117 5 0 296 95 646 212
350 116 1102 365 1671 554 569 189 1049 348 1065 354 17 6 255 85 530 177 275
91 525 177 555 190 203 89 421 301 534 518 44 84 60 134 221 705 70 245 137
481 150 525 13 44 49 168 79 275 30 107 104 368 164 580 61 212 114 401 120
421 l10 36 -1012 1011 -1011 1010 -610 -175z"/>
</g>
</svg>
